<?xml version="1.0" standalone="no"?><!DOCTYPE svg PUBLIC "-//W3C//DTD SVG 1.1//EN" "http://www.w3.org/Graphics/SVG/1.1/DTD/svg11.dtd"><svg t="1553156883989" class="icon" style="" viewBox="0 0 1024 1024" version="1.1" xmlns="http://www.w3.org/2000/svg" p-id="34927" xmlns:xlink="http://www.w3.org/1999/xlink" width="16" height="16"><defs><style type="text/css"></style></defs><path d="M985.09561 1023.995223a36.579935 36.579935 0 0 1-27.434951-11.738338L11.291334 67.047745a39.85575 39.85575 0 0 1 0-55.484118c15.014152-15.014152 40.469965-15.014152 55.552364 0l945.686864 945.823356a39.241535 39.241535 0 0 1-27.434952 66.60824M39.408747 1023.995223a39.309781 39.309781 0 0 1-27.434951-67.290701L957.046444 11.563627a39.241535 39.241535 0 0 1 55.484118 55.552364L66.911944 1012.871101A38.490827 38.490827 0 0 1 39.408747 1023.995223" fill="#000000" p-id="34928"></path></svg>