<?xml version="1.0" standalone="no"?><!DOCTYPE svg PUBLIC "-//W3C//DTD SVG 1.1//EN" "http://www.w3.org/Graphics/SVG/1.1/DTD/svg11.dtd"><svg t="1553243472578" class="icon" style="" viewBox="0 0 1024 1024" version="1.1" xmlns="http://www.w3.org/2000/svg" p-id="5404" xmlns:xlink="http://www.w3.org/1999/xlink" width="16" height="16"><defs><style type="text/css"></style></defs><path d="M1005.155 1017.251c25.123-3.567 9.827 2.898 16.108-13.6l-0.369-150.15-238.163-2.075-417.285 0.082 1.552 166.404 638.158-0.662z" p-id="5405"></path><path d="M364.411 590.423h656.851v-163.171l-659.661-2.819z" p-id="5406"></path><path d="M365.223 13.689l-3.62 149.158 659.661-0.083v-163.004l-656.039-2.405z" p-id="5407"></path><path d="M7.203 591.83h220.576l27.191-1.906v-163.418l-27.118-3.649-220.652 0.663z" p-id="5408"></path><path d="M8.089 1017.582l246.662-1.246-1.183-164.827-246.291 3.067z" p-id="5409"></path><path d="M258.815 159.199l-3.769-37.808-0.444-121.631-246.957-2.489 0.516 165.574z" p-id="5410"></path></svg>