<?xml version="1.0" standalone="no"?><!DOCTYPE svg PUBLIC "-//W3C//DTD SVG 1.1//EN" "http://www.w3.org/Graphics/SVG/1.1/DTD/svg11.dtd"><svg t="1553156739669" class="icon" style="" viewBox="0 0 1024 1024" version="1.1" xmlns="http://www.w3.org/2000/svg" p-id="32014" xmlns:xlink="http://www.w3.org/1999/xlink" width="16" height="16"><defs><style type="text/css"></style></defs><path d="M314.594513 731.286332l-35.015491 41.250496 0 107.927081 2.25946-4.51278 2.597151-5.184069 4.928243-2.965541 61.447491-36.870746c-7.850805-19.914562-15.419178-39.669488-22.537296-59.487859C323.461461 758.026346 318.877049 744.655827 314.594513 731.286332L314.594513 731.286332zM244.553297 752.49026l63.417355-74.695213 24.27794-28.596292 9.970072 36.131919c6.782473 24.577768 14.686491 48.693002 23.332405 72.750931 8.724709 24.303522 18.306948 48.871057 28.259624 73.891917l6.225795 15.628956-14.45727 8.68173-70.932516 42.567491-17.317411 34.644031-5.511527 11.021008L279.622 944.516738l-19.922748 0-19.87977 0 0-19.878746L239.819482 765.305123l0-7.234775L244.553297 752.49026z" p-id="32015"></path><path d="M511.990279 847.549266l-77.035514 0-25.63689 0 0-20.895913c-51.66366-129.182174-102.725616-258.718413-102.725616-415.633209 0-68.301596 20.303418-136.540769 54.17997-194.614419 34.55705-59.248406 83.517135-108.253516 139.798976-136.38932l11.418051-5.713119 11.418051 5.713119c56.282864 28.136827 105.242949 77.131705 139.808186 136.38932 33.875528 58.07365 54.178947 126.313847 54.178947 194.614419 0 158.441569-52.05968 288.98474-104.243179 419.422512l0.034792 0.008186-0.026606 0.071631-6.076392 17.026792-18.052145 0L511.990279 847.549266 511.990279 847.549266zM452.237383 796.274462l59.752896 0 59.751872 0c48.165999-120.6785 94.379531-242.285139 94.379531-385.253294 0-59.169611-17.671475-118.427226-47.159066-168.985716-27.297716-46.788629-64.529689-85.893252-106.972337-110.231567C469.547631 156.1422 432.323844 195.246823 405.026128 242.043638c-29.487591 50.550303-47.167253 109.807918-47.167253 168.977529C357.857852 553.97295 404.072407 675.585729 452.237383 796.274462z" p-id="32016"></path><path d="M709.394231 731.286332c-4.291746 13.368472-8.865925 26.740014-13.678534 40.154535-7.118118 19.818371-14.694677 39.573297-22.538319 59.487859l61.448514 36.870746 4.936429 2.965541 2.597151 5.184069 2.251274 4.51278L744.410746 772.536828 709.394231 731.286332 709.394231 731.286332zM658.446885 758.080581c8.628518-24.047696 16.532535-48.173163 23.324218-72.750931l9.979282-36.121685 24.26873 28.587082 63.417355 74.695213 4.743024 5.580089 0 7.234775 0 159.331845 0 19.878746L764.290515 944.515714l-19.924795 0-12.177344 0-5.519714-11.021008-17.326621-34.644031-70.933539-42.567491-14.456247-8.68173 6.226818-15.628956C640.131751 806.951639 649.722176 782.384104 658.446885 758.080581z" p-id="32017"></path><path d="M467.339336 857.580736l89.310072 0 18.519796 0-6.553253 17.318434-20.506033 54.243415-3.143597 8.308223-8.831132 0-48.288796 0-8.822946 0-3.14462-8.308223-20.506033-54.243415-6.545066-17.318434L467.339336 857.580736 467.339336 857.580736zM538.130635 883.20944l-52.272527 0 10.809183 28.614711 30.643927 0L538.130635 883.20944z" p-id="32018"></path><path d="M570.771033 210.852242c21.875217 31.854499 39.537482 67.798129 51.645241 105.781208 11.727089 36.808324 18.200524 75.286684 18.200524 113.586988l-51.265594 0c0-33.390481-5.54632-66.63156-15.604396-98.16781-10.482749-32.905434-25.964348-64.292282-45.225017-92.357478L570.771033 210.852242z" p-id="32019"></path></svg>