<?xml version="1.0" standalone="no"?><!DOCTYPE svg PUBLIC "-//W3C//DTD SVG 1.1//EN" "http://www.w3.org/Graphics/SVG/1.1/DTD/svg11.dtd"><svg t="1553156217503" class="icon" style="" viewBox="0 0 1024 1024" version="1.1" xmlns="http://www.w3.org/2000/svg" p-id="24427" xmlns:xlink="http://www.w3.org/1999/xlink" width="16" height="16"><defs><style type="text/css"></style></defs><path d="M477.35552 293.73952 174.86976 596.24064c-17.43488 17.4144-24.96512 38.19008-7.51488 55.63008 17.43488 17.42976 38.1952 9.92 55.63008-7.50976l254.20032-254.19904 0 457.66912c0 22.70976 9.89952 41.11488 32.60416 41.11488 22.71104 0 35.45088-18.40512 35.45088-41.11488L545.24032 390.16064l253.84064 253.84448c17.44 17.42976 37.68064 25.45536 55.13984 8.01536 17.43488-17.45536 10.41024-38.69952-7.02464-56.13056L544.65536 293.3504c0 0-18.1248-20.62592-31.87968-20.62592C496.45056 272.72448 477.35552 293.73952 477.35552 293.73952L477.35552 293.73952 477.35552 293.73952zM203.55456 206.29504l614.60096 0c28.34048 0 44.66048-8.66048 44.66048-33.34016 0-24.63488-14.1696-34.71488-44.66048-34.71488L203.55456 138.24c-28.22016 0-44.6592 9.3696-44.6592 34.02496C158.89536 196.92032 175.76448 206.29504 203.55456 206.29504L203.55456 206.29504 203.55456 206.29504zM203.55456 206.29504" p-id="24428"></path></svg>