<?xml version="1.0" standalone="no"?><!DOCTYPE svg PUBLIC "-//W3C//DTD SVG 1.1//EN" "http://www.w3.org/Graphics/SVG/1.1/DTD/svg11.dtd"><svg t="1555579740200" class="icon" style="" viewBox="0 0 1024 1024" version="1.1" xmlns="http://www.w3.org/2000/svg" p-id="1985" xmlns:xlink="http://www.w3.org/1999/xlink" width="200" height="200"><defs><style type="text/css"></style></defs><path d="M647.616724 823.152623h138.895397v36.285414H647.616724z" fill="#ff734d" p-id="1986"></path><path d="M960.374914 682.260755c-5.208629-20.038382-16.512069-28.489868-25.025977-32.015158-9.151427-3.827165-20.941961-3.01159-29.605271-0.177031-25.716708-64.739467-60.248176-98.881055-100.19191-98.881055h-12.437264v-387.30093c0-41.405015-33.698496-75.103512-75.112721-75.103512H583.428819v-9.159614c0-25.016767-20.348444-45.356001-45.356-45.356S492.715795 54.605665 492.715795 79.622432v9.159614H367.986025v-9.159614c0-25.016767-20.348444-45.356001-45.356-45.356001s-45.356001 20.339234-45.356001 45.356001v9.159614H142.701073c-41.414225 0-75.112722 33.698496-75.112722 75.103512v718.634174c0 41.405015 33.698496 75.103512 75.112722 75.103511h365.491205c8.566096 8.66331 19.878746 13.394055 32.298613 13.394055h33.202193c15.511275 0 30.385031-8.132214 38.739303-21.083177 5.634324-8.433066 8.610098-18.762319 8.610098-29.907147h196.130959c0.167822 13.234419 4.118807 24.981974 11.453867 34.035164 8.885368 10.93198 21.499663 16.95516 35.523051 16.95516h28.303626c22.775726 0 46.986127-17.877159 46.986128-50.990324v-36.320207c8.788154-16.70752 13.243629-40.48404 13.243628-70.709435 0-20.162202-3.791349-42.504046-11.268647-66.493414 12.43931-11.409864 27.109428-32.405037 18.959817-64.243163z m-54.242392 186.847526l-2.976798 4.464685v46.455031c0 10.860349-5.767354 14.70491-10.701736 14.70491h-28.303626c-3.038196 0-5.341658-1.116427-7.281847-3.52529-2.206248-2.728134-3.419889-6.945179-3.419889-11.906167v-35.558867H584.758094v36.285414c0 10.099009-5.731538 14.70491-11.06501 14.70491h-33.202193c-3.127224 0-5.554506-1.133823-7.388271-3.419889-1.789763-2.286066-2.89698-5.332449-3.241834-8.114818l-0.256849-48.705282-1.709945-7.547907c-5.094018-11.250228-11.17041-29.676903-11.170411-53.594639 0-15.148002 5.78475-38.730093 16.308431-66.510809l5.731538-15.414061-14.58109-7.299244c-19.098987-9.408277-15.343453-23.847128-14.103206-28.577872 1.506307-5.79396 3.330862-7.919367 5.412267-8.504698 3.986801 0 10.586103 3.384074 13.314237 4.801353l19.294438 10.188037 6.502088-20.995174c10.683317-34.938744 34.912138-93.564979 77.140914-93.564979H805.550733c37.065174 0 63.436798 65.48341 73.048713 93.618191l6.901177 20.357654 22.882149-12.384052c2.223644-1.346671 8.982582-5.421476 12.800538-5.510504 0.823761 0.372483 2.604314 2.463098 4.030803 7.778151 3.587712 14.049994-1.257643 25.212218-14.386662 33.148981l-12.739139 7.635911 5.048993 14.06739c8.79634 24.680099 13.261025 47.163159 13.261025 66.812685 0.002047 34.513048-6.51846 50.104141-10.265808 56.110949z m-583.50352-644.611274c25.007557 0 45.356001-20.339234 45.356-45.356001v-35.930327h124.730793v35.930327c0 25.016767 20.348444 45.356001 45.356 45.356001s45.356001-20.339234 45.356001-45.356001v-35.930327h134.571928c11.409864 0 20.685111 9.283434 20.685112 20.675902v387.301953H631.744221c-45.223994 0-81.641415 34.796504-105.666598 100.793614-7.990998-1.700735-18.470677-1.576915-26.531259 1.984191-12.163017 5.510504-20.445658 16.424064-24.618701 32.458249-6.325056 24.326035 0.673335 46.331211 19.22383 61.355393-9.098215 26.770713-13.713326 48.793286-13.713326 65.572438 0 29.835516 7.733125 52.957119 12.880355 65.040319v24.803919H142.701073c-11.409864 0-20.685111-9.283434-20.685112-20.675902V163.886581c0-11.392468 9.275247-20.675902 20.685112-20.675902h134.571928v35.930327c0 25.016767 20.348444 45.356001 45.356001 45.356001z" fill="#ff734d" p-id="1987"></path><path d="M826.006624 724.995045c-29.614481 0-53.701063 24.006763-53.701063 53.524031 0 29.605272 24.086581 53.701063 53.701063 53.701063 29.517267 0 53.524031-24.095791 53.52403-53.701063 0-29.517267-24.007787-53.524031-53.52403-53.524031z m0 36.285415c9.505491 0 17.238616 7.724938 17.238616 17.238616 0 9.602705-7.733125 17.415648-17.238616 17.415648-9.762341 0-17.415648-7.65433-17.415649-17.415648-0.001023-9.513678 7.812943-17.238616 17.415649-17.238616zM608.29516 724.995045c-29.614481 0-53.701063 24.006763-53.701063 53.524031 0 29.605272 24.086581 53.701063 53.701063 53.701063 29.517267 0 53.524031-24.095791 53.524031-53.701063 0-29.517267-24.006763-53.524031-53.524031-53.524031z m0 36.285415c9.505491 0 17.238616 7.724938 17.238616 17.238616 0 9.602705-7.733125 17.415648-17.238616 17.415648-9.762341 0-17.416671-7.65433-17.416672-17.415648 0.001023-9.513678 7.813966-17.238616 17.416672-17.238616zM186.099489 362.355795c0 10.009981 8.141424 18.142196 18.142195 18.142195h264.360923c10.001795 0 18.142196-8.132214 18.142196-18.142195s-8.141424-18.142196-18.142196-18.142196h-264.360923c-10.000771 0-18.142196 8.132214-18.142195 18.142196zM417.665495 724.995045H202.550159c-9.071609 0-16.45067 8.132214-16.45067 18.142196s7.379061 18.142196 16.45067 18.142196h215.115336c9.071609 0 16.45067-8.132214 16.45067-18.142196s-7.379061-18.142196-16.45067-18.142196zM186.099489 493.588675c0 10.009981 8.141424 18.142196 18.142195 18.142195h489.7523c10.001795 0 18.142196-8.132214 18.142196-18.142195s-8.141424-18.142196-18.142196-18.142196H204.241684c-10.000771 0-18.142196 8.132214-18.142195 18.142196zM501.627768 606.678336H201.363124c-8.55791 0-15.263635 7.972579-15.263635 18.142196 0 10.169617 6.705726 18.142196 15.263635 18.142195h300.264644c8.55791 0 15.263635-7.972579 15.263636-18.142195 0-10.169617-6.705726-18.142196-15.263636-18.142196z" fill="#ff734d" p-id="1988"></path></svg>