<?xml version="1.0" standalone="no"?><!DOCTYPE svg PUBLIC "-//W3C//DTD SVG 1.1//EN" "http://www.w3.org/Graphics/SVG/1.1/DTD/svg11.dtd"><svg t="1554107207523" class="icon" style="" viewBox="0 0 1297 1024" version="1.1" xmlns="http://www.w3.org/2000/svg" p-id="1767" xmlns:xlink="http://www.w3.org/1999/xlink" width="20.265625" height="16"><defs><style type="text/css"></style></defs><path d="M978.231345 899.462114H119.627086A119.627086 119.627086 0 0 1 0 779.835028V257.522348a119.627086 119.627086 0 0 1 119.627086-119.627086h243.379244l28.089776-137.502398h316.255515l28.089776 137.502398h243.379244a119.03779 119.03779 0 0 1 119.03779 120.609246V779.835028a119.627086 119.627086 0 0 1-119.627086 119.627086zM119.627086 196.824861A60.697487 60.697487 0 0 0 58.929599 257.522348V779.835028a60.697487 60.697487 0 0 0 60.697487 60.697487H978.231345a60.893919 60.893919 0 0 0 60.697487-60.697487V258.111644a60.304623 60.304623 0 0 0-60.108191-61.286783H687.315557l-28.089775-137.502398h-220.003837l-28.089775 137.502398z m423.310954 577.706503a252.611548 252.611548 0 1 1 251.629388-252.415116 252.80798 252.80798 0 0 1-251.629388 252.415116z m0-446.097065a193.681949 193.681949 0 1 0 193.681948 193.681949 193.878381 193.878381 0 0 0-193.681948-193.681949z" fill="#9A999A" p-id="1768"></path><path d="M117.07347 42.822175l196.431997 0 0 58.929599-196.431997 0 0-58.929599Z" fill="#808080" p-id="1769"></path><path d="M926.766162 400.917706a86.037215 86.037215 0 1 1 84.269326-86.037215 85.447919 85.447919 0 0 1-84.269326 86.037215z m0-132.591598a46.750815 46.750815 0 1 0 44.982927 46.554383 45.768655 45.768655 0 0 0-44.982927-46.554383z" fill="#9A999A" p-id="1770"></path></svg>