<?xml version="1.0" standalone="no"?><!DOCTYPE svg PUBLIC "-//W3C//DTD SVG 1.1//EN" "http://www.w3.org/Graphics/SVG/1.1/DTD/svg11.dtd"><svg t="1553754231341" class="icon" style="" viewBox="0 0 1024 1024" version="1.1" xmlns="http://www.w3.org/2000/svg" p-id="9502" xmlns:xlink="http://www.w3.org/1999/xlink" width="16" height="16"><defs><style type="text/css"></style></defs><path d="M0 0h1024v1024H0z" fill="#FFFFFF" p-id="9503"></path><path d="M524.8 129.4l120 243.2c2.1 4.2 6.1 7.2 10.8 7.8l268.4 39c11.7 1.7 16.4 16.1 7.9 24.4L737.8 633.2c-3.4 3.3-4.9 8-4.1 12.7l45.9 267.3c2 11.7-10.3 20.6-20.8 15.1L518.7 802.1c-4.2-2.2-9.2-2.2-13.3 0L265.3 928.3c-10.5 5.5-22.8-3.4-20.8-15.1l45.9-267.3c0.8-4.6-0.7-9.4-4.1-12.7L92 443.9c-8.5-8.3-3.8-22.7 7.9-24.4l268.4-39c4.7-0.7 8.7-3.6 10.8-7.8l120-243.2c5.3-10.8 20.5-10.8 25.7-0.1z" fill="#D43E00" p-id="9504"></path></svg>