<?xml version="1.0" standalone="no"?><!DOCTYPE svg PUBLIC "-//W3C//DTD SVG 1.1//EN" "http://www.w3.org/Graphics/SVG/1.1/DTD/svg11.dtd"><svg t="1555569293551" class="icon" style="" viewBox="0 0 1024 1024" version="1.1" xmlns="http://www.w3.org/2000/svg" p-id="14710" xmlns:xlink="http://www.w3.org/1999/xlink" width="200" height="200"><defs><style type="text/css"></style></defs><path d="M511.997192 1024c-59.344331 0-114.218322-6.233766-163.094419-18.532819-52.919621-13.315549-99.004563-33.808354-136.974377-60.90558-41.266409-29.450333-73.170937-66.830467-94.837487-111.118288-22.806599-46.612847-34.369954-101.245349-34.369954-162.369954 0-42.282906 5.498069-85.705862 16.342576-129.050193 10.440154-41.726922 25.833626-83.341523 45.691822-123.686908 35.251667-71.547912 84.088452-137.88417 142.084942-193.190593-12.821341-20.21762-19.493155-42.22113-19.493156-64.668305 0-23.396279 6.958231-45.882766 20.678133-66.830466 12.489996-19.094419 30.056862-35.99298 52.228852-50.302563C383.491751 15.393471 440.494208 0 500.714637 0S617.92629 15.393471 661.208845 43.344331c22.160758 14.309582 39.727624 31.230607 52.228852 50.302563 13.725518 20.947701 20.678133 43.434187 20.678133 66.830466a116.082836 116.082836 0 0 1-11.731836 50.639523c61.899614 54.407862 114.454194 122.428922 152.800281 197.97543 43.243243 85.194805 66.09477 175.780976 66.09477 261.981046 0 61.124605-11.563356 115.757108-34.369954 162.37557-21.66655 44.282204-53.571078 81.667954-94.837487 111.118288-37.969814 27.097227-84.054756 47.590032-136.974377 60.90558-48.881713 12.293436-103.750088 18.527203-163.100035 18.527203zM500.714637 55.076167c-96.657073 0-178.313794 48.297648-178.313795 105.401193 0 16.994033 7.340119 33.56125 21.818182 49.235522l19.094419 20.683748-21.110565 18.639523c-126.090558 111.342927-204.422604 273.055809-204.422604 422.037206 0 101.475605 35.706564 178.409266 106.142506 228.666901 63.421551 45.259389 156.124956 69.183573 268.074412 69.183573s204.652861-23.924184 268.074412-69.183573c70.419094-50.26325 106.142506-127.196911 106.142506-228.666901 0-155.844156-85.093717-325.660934-216.777817-432.623377l-20.313092-16.494208L664.539137 200.828361c9.614602-13.158301 14.489294-26.732187 14.489294-40.351001C679.022815 103.334503 597.366093 55.076167 500.714637 55.076167z" fill="#886FF7" p-id="14711"></path><path d="M613.601966 662.351702H538.134082v-32.286416H613.601966a26.13689 26.13689 0 0 0 0-52.27378H538.134082v-15.505792c0-0.19656-0.050544-0.381888-0.05616-0.5616l78.770095-78.786943a26.13689 26.13689 0 1 0-36.964549-36.964549L511.997192 513.864514 444.110916 445.972622a26.13689 26.13689 0 1 0-36.964549 36.964549l78.770095 78.770095c0 0.19656-0.05616 0.381888-0.05616 0.5616v15.505792H410.392418a26.13689 26.13689 0 0 0 0 52.27378h75.467884v32.286416H410.392418a26.13689 26.13689 0 0 0 0 52.273781h75.467884v50.869778a26.13689 26.13689 0 0 0 52.27378 0v-50.869778H613.601966a26.13689 26.13689 0 1 0 0-52.273781z" fill="#FFCE00" p-id="14712"></path></svg>