<?xml version="1.0" standalone="no"?><!DOCTYPE svg PUBLIC "-//W3C//DTD SVG 1.1//EN" "http://www.w3.org/Graphics/SVG/1.1/DTD/svg11.dtd"><svg t="1555569168925" class="icon" style="" viewBox="0 0 1024 1024" version="1.1" xmlns="http://www.w3.org/2000/svg" p-id="11334" xmlns:xlink="http://www.w3.org/1999/xlink" width="200" height="200"><defs><style type="text/css"></style></defs><path d="M983.04 532.48a450.56 450.56 0 1 0-450.56 450.56h409.6v-81.92h-151.1424A450.56 450.56 0 0 0 983.04 532.48z m-163.84-122.88a122.88 122.88 0 1 1-122.88 122.88 122.88 122.88 0 0 1 122.88-122.88z m-286.72-286.72a122.88 122.88 0 1 1-122.88 122.88 122.88 122.88 0 0 1 122.88-122.88zM245.76 655.36a122.88 122.88 0 1 1 122.88-122.88 122.88 122.88 0 0 1-122.88 122.88z m163.84 163.84a122.88 122.88 0 1 1 122.88 122.88 122.88 122.88 0 0 1-122.88-122.88z" fill="#0000FF" p-id="11335"></path><path d="M942.08 491.52a450.56 450.56 0 1 0-450.56 450.56h409.6v-81.92h-151.1424A450.56 450.56 0 0 0 942.08 491.52z m-163.84-122.88a122.88 122.88 0 1 1-122.88 122.88 122.88 122.88 0 0 1 122.88-122.88z m-286.72-286.72a122.88 122.88 0 1 1-122.88 122.88 122.88 122.88 0 0 1 122.88-122.88zM204.8 614.4a122.88 122.88 0 1 1 122.88-122.88 122.88 122.88 0 0 1-122.88 122.88z m163.84 163.84a122.88 122.88 0 1 1 122.88 122.88 122.88 122.88 0 0 1-122.88-122.88z" fill="#FF0000" p-id="11336"></path></svg>