<?xml version="1.0" standalone="no"?><!DOCTYPE svg PUBLIC "-//W3C//DTD SVG 1.1//EN" "http://www.w3.org/Graphics/SVG/1.1/DTD/svg11.dtd"><svg t="1555569235118" class="icon" style="" viewBox="0 0 1024 1024" version="1.1" xmlns="http://www.w3.org/2000/svg" p-id="12765" xmlns:xlink="http://www.w3.org/1999/xlink" width="200" height="200"><defs><style type="text/css"></style></defs><path d="M112.96 135.84l791.2 0 0 112.96-791.2 0 0-112.96Z" fill="#58C6FE" p-id="12766"></path><path d="M522.24 248.8h335.84v766.72H522.24zM159.04 248.8h336v766.72H168.32a9.28 9.28 0 0 1-9.28-9.28V248.8z" fill="#2DA8C4" p-id="12767"></path><path d="M522.24 248.8h335.84v54.08H522.24zM168.32 248.8h326.56v54.08h-336v-44.64a9.28 9.28 0 0 1 9.44-9.44z" fill="#1F88A0" p-id="12768"></path><path d="M436.32 712.8h467.84v292.64a10.08 10.08 0 0 1-10.08 10.08H436.32V712.8z" fill="#2DA8C4" p-id="12769"></path><path d="M436.32 1015.52h-25.92v-264h25.92z" fill="#FFFFFF" p-id="12770"></path><path d="M436.32 751.52h467.84v45.6H436.32z" fill="#1F88A0" p-id="12771"></path><path d="M554.4 850.4h210.72v165.12H554.4zM230.56 956.48a8 8 0 0 1-8-8v-112a8 8 0 0 1 16 0v112a8 8 0 0 1-8 8zM326.88 956.48a8 8 0 0 1-8-8v-112a8 8 0 0 1 16 0v112a8 8 0 0 1-8 8zM230.56 704.96a8 8 0 0 1-8-8v-112a8 8 0 0 1 16 0v112a8 8 0 0 1-8 8zM326.88 704.96a8 8 0 0 1-8-8v-112a8 8 0 0 1 16 0v112a8 8 0 0 1-8 8zM423.36 704.96a8 8 0 0 1-8-8v-112a8 8 0 0 1 16 0v112a8 8 0 0 1-8 8zM230.56 480a8 8 0 0 1-8-8v-112a8 8 0 0 1 16 0v112a8 8 0 0 1-8 8zM326.88 480a8 8 0 0 1-8-8v-112a8 8 0 0 1 16 0v112a8 8 0 0 1-8 8zM423.36 480a8 8 0 0 1-8-8v-112a8 8 0 0 1 16 0v112a8 8 0 0 1-8 8zM593.76 704.96a8 8 0 0 1-8-8v-112a8 8 0 1 1 16 0v112a8 8 0 0 1-8 8zM690.24 704.96a8 8 0 0 1-8-8v-112a8 8 0 0 1 16 0v112a8 8 0 0 1-8 8zM786.56 704.96a8 8 0 0 1-8-8v-112a8 8 0 0 1 16 0v112a8 8 0 0 1-8 8zM593.76 480a8 8 0 0 1-8-8v-112a8 8 0 0 1 16 0v112a8 8 0 0 1-8 8zM690.24 480a8 8 0 0 1-8-8v-112a8 8 0 0 1 16 0v112a8 8 0 0 1-8 8zM786.56 480a8 8 0 0 1-8-8v-112a8 8 0 0 1 16 0v112a8 8 0 0 1-8 8z" fill="#FFFFFF" p-id="12772"></path><path d="M391.84 665.92l553.44 0 0 85.6-553.44 0 0-85.6Z" fill="#58C6FE" p-id="12773"></path><path d="M171.68 16l15.04 30.56a2.88 2.88 0 0 0 2.24 1.6l33.6 4.96a2.88 2.88 0 0 1 1.6 4.96l-24.32 23.2a2.88 2.88 0 0 0-0.8 2.56l5.76 33.44a2.88 2.88 0 0 1-4.32 3.04l-30.08-16a2.88 2.88 0 0 0-2.72 0l-30.08 16a2.88 2.88 0 0 1-4.32-3.04l5.76-33.44a2.88 2.88 0 0 0-0.8-2.56L113.92 57.44a2.88 2.88 0 0 1 1.6-4.96L149.12 48a2.88 2.88 0 0 0 2.24-1.6L166.4 16a2.88 2.88 0 0 1 5.28 0z" fill="#58C6FE" p-id="12774"></path><path d="M167.68 104.64a2.88 2.88 0 0 1 2.24 0l30.56 16a3.04 3.04 0 0 0 4.32-3.2l-5.76-33.76a2.88 2.88 0 0 1 0-2.24z" fill="#1F88A0" p-id="12775"></path><path d="M179.84 109.76l20.8 10.72a3.04 3.04 0 0 0 4.32-3.36l-4-23.04z" fill="#2DA8C4" p-id="12776"></path><path d="M341.44 16l15.04 30.56a2.88 2.88 0 0 0 2.24 1.6l33.6 4.96a2.88 2.88 0 0 1 1.6 4.96L369.6 81.28a2.88 2.88 0 0 0-0.8 2.56l5.76 33.44a2.88 2.88 0 0 1-4.32 3.04l-30.08-16a2.88 2.88 0 0 0-2.72 0l-30.08 16a2.88 2.88 0 0 1-4.32-3.04l5.76-33.44a2.88 2.88 0 0 0-0.8-2.56l-24.32-23.84a2.88 2.88 0 0 1 1.6-4.96l33.6-4.48a2.88 2.88 0 0 0 2.24-1.6L336 16a2.88 2.88 0 0 1 5.44 0z" fill="#58C6FE" p-id="12777"></path><path d="M337.44 104.64a2.88 2.88 0 0 1 2.24 0l30.56 16a3.04 3.04 0 0 0 4.32-3.2L368 83.52a2.88 2.88 0 0 1 0-2.24z" fill="#1F88A0" p-id="12778"></path><path d="M349.6 109.76l20.8 10.72a3.04 3.04 0 0 0 4.32-3.36l-4-23.04z" fill="#2DA8C4" p-id="12779"></path><path d="M512 16l15.04 30.56A2.88 2.88 0 0 0 528 48l33.6 4.96a2.88 2.88 0 0 1 1.6 4.96l-23.84 23.36a2.88 2.88 0 0 0-0.8 2.56L544 117.28a2.88 2.88 0 0 1-4.32 3.04l-30.08-16a2.88 2.88 0 0 0-2.72 0l-30.08 16a2.88 2.88 0 0 1-4.32-3.04l5.76-33.44a2.88 2.88 0 0 0-0.8-2.56l-24-23.84a2.88 2.88 0 0 1 1.6-4.96l33.6-4.48a2.88 2.88 0 0 0 2.24-1.6l15.04-30.4A2.88 2.88 0 0 1 512 16z" fill="#58C6FE" p-id="12780"></path><path d="M507.2 104.64a2.88 2.88 0 0 1 2.24 0l30.56 16a3.04 3.04 0 0 0 4.32-3.2l-5.76-33.76a2.88 2.88 0 0 1 0-2.24z" fill="#1F88A0" p-id="12781"></path><path d="M519.36 109.76l20.8 10.72a3.04 3.04 0 0 0 3.84-3.36l-4-23.04z" fill="#2DA8C4" p-id="12782"></path><path d="M680.96 16l15.04 30.56a2.88 2.88 0 0 0 2.24 1.6l33.6 4.96a2.88 2.88 0 0 1 1.6 4.96l-24.32 23.2a2.88 2.88 0 0 0-0.8 2.56l5.76 33.44a2.88 2.88 0 0 1-4.32 3.04l-30.08-16a2.88 2.88 0 0 0-2.72 0l-30.08 16a2.88 2.88 0 0 1-4.32-3.04l5.76-33.44a2.88 2.88 0 0 0-0.8-2.56l-24.32-23.84a2.88 2.88 0 0 1 1.6-4.96l33.6-4.48a2.88 2.88 0 0 0 2.24-1.6l15.04-30.4a2.88 2.88 0 0 1 5.28 0z" fill="#58C6FE" p-id="12783"></path><path d="M676.96 104.64a2.88 2.88 0 0 1 2.24 0l30.56 16a3.04 3.04 0 0 0 4.32-3.2l-5.76-33.76a2.88 2.88 0 0 1 0-2.24z" fill="#1F88A0" p-id="12784"></path><path d="M689.12 109.76l20.8 10.72a3.04 3.04 0 0 0 4.32-3.36l-4-23.04z" fill="#2DA8C4" p-id="12785"></path><path d="M850.72 16l15.04 30.56a2.88 2.88 0 0 0 2.24 1.6l33.6 4.96a2.88 2.88 0 0 1 1.6 4.96l-24.32 23.2a2.88 2.88 0 0 0-0.8 2.56l5.76 33.44a2.88 2.88 0 0 1-4.32 3.04l-30.08-16a2.88 2.88 0 0 0-2.72 0L816 120.48a2.88 2.88 0 0 1-4.32-3.04l5.76-33.44a2.88 2.88 0 0 0-0.8-2.56l-23.68-24a2.88 2.88 0 0 1 1.6-4.96l33.6-4.48a2.88 2.88 0 0 0 2.24-1.6l15.04-30.4a2.88 2.88 0 0 1 5.28 0z" fill="#58C6FE" p-id="12786"></path><path d="M846.72 104.64a2.88 2.88 0 0 1 2.24 0l30.56 16a3.04 3.04 0 0 0 4.32-3.2l-5.76-33.76a2.88 2.88 0 0 1 0-2.24z" fill="#1F88A0" p-id="12787"></path><path d="M858.72 109.76l20.8 10.72a3.04 3.04 0 0 0 4.32-3.36L880 94.08z" fill="#2DA8C4" p-id="12788"></path></svg>