<?xml version="1.0" standalone="no"?><!DOCTYPE svg PUBLIC "-//W3C//DTD SVG 1.1//EN" "http://www.w3.org/Graphics/SVG/1.1/DTD/svg11.dtd"><svg t="1555569476314" class="icon" style="" viewBox="0 0 1024 1024" version="1.1" xmlns="http://www.w3.org/2000/svg" p-id="17886" xmlns:xlink="http://www.w3.org/1999/xlink" width="200" height="200"><defs><style type="text/css"></style></defs><path d="M912.025913 612.082387a381.54948 381.54948 0 0 0-72.436523-200.747561L559.370904 23.596854A57.833463 57.833463 0 0 0 512.534258 0.000445H512.445215c-18.699041 0-36.196001 8.726219-46.925688 23.462845l-280.841788 387.782493a381.371393 381.371393 0 0 0-72.703652 200.658518 385.957111 385.957111 0 0 0 41.271455 197.274883 390.765435 390.765435 0 0 0 128.533646 146.475821 400.114956 400.114956 0 0 0 199.278351 67.361069 481.455784 481.455784 0 0 0 61.751357 0 400.248521 400.248521 0 0 0 199.23383-67.227504 390.899 390.899 0 0 0 128.578168-146.475821 386.090675 386.090675 0 0 0 41.405019-197.230362z m-103.289941 168.736585a324.339318 324.339318 0 0 1-106.584534 121.543766c-48.216813 32.767843-103.378984 51.377841-164.017302 55.295736a412.714548 412.714548 0 0 1-52.446358 0c-60.638319-3.917894-115.80049-22.527892-164.017303-55.295736a324.205754 324.205754 0 0 1-106.540012-121.632809 322.91463 322.91463 0 0 1-34.548704-165.085819 317.883697 317.883697 0 0 1 60.638319-167.222853l271.180616-374.426035 270.601836 374.515078a318.017262 318.017262 0 0 1 60.415711 167.267374 323.048194 323.048194 0 0 1-34.637747 165.041298z" fill="#108EE9" p-id="17887"></path><path d="M723.388206 526.868186h-162.325484a10.863252 10.863252 0 0 1-10.907774-12.733156l26.312222-145.140176c2.04799-11.08586-12.466027-17.452438-19.767558-8.77074L336.451622 622.856597c-5.965885 7.123444-0.756866 17.719567 8.681698 17.719567H513.780861c6.98988 0 12.287941 6.099449 11.041339 12.733157l-24.531361 135.345439c-2.04799 11.041338 12.466027 17.407917 19.767557 8.726219l212.011508-252.704182c5.965885-7.123444 0.801387-17.764089-8.681698-17.764089z" fill="#108EE9" p-id="17888"></path></svg>