<?xml version="1.0" standalone="no"?><!DOCTYPE svg PUBLIC "-//W3C//DTD SVG 1.1//EN" "http://www.w3.org/Graphics/SVG/1.1/DTD/svg11.dtd"><svg t="1555909697811" class="icon" style="" viewBox="0 0 1024 1024" version="1.1" xmlns="http://www.w3.org/2000/svg" p-id="2247" xmlns:xlink="http://www.w3.org/1999/xlink" width="16" height="16"><defs><style type="text/css"></style></defs><path d="M808.568806 764.963665a32.355444 32.355444 0 0 0-1.188829-6.586759 253.831189 253.831189 0 0 0-141.374334-194.196925 179.513273 179.513273 0 0 0 69.980295-141.695638 178.870662 178.870662 0 0 0-178.195921-178.581488 178.485096 178.485096 0 0 0-178.035268 178.581488 179.449012 179.449012 0 0 0 70.076687 141.727769 254.152495 254.152495 0 0 0-140.795984 191.305177 30.395482 30.395482 0 0 0-1.83144 10.603075v0.160653l0.257044 2.249137a30.138437 30.138437 0 0 0 30.106307 29.881393 30.106307 30.106307 0 0 0 29.849262-25.704424h0.61048l0.610481-4.787449a190.277 190.277 0 0 1 183.336805-167.400063h13.141387a191.080264 191.080264 0 0 1 183.722372 167.335802l0.546219 4.85171h0.449828a30.106307 30.106307 0 0 0 60.051961-4.305491v-2.120615zM439.80671 422.484343a117.983307 117.983307 0 0 1 117.694133-117.951177 118.079699 118.079699 0 0 1 117.919046 117.951177 117.919046 117.919046 0 0 1-109.05102 117.694132H549.628863a118.272482 118.272482 0 0 1-109.822153-117.694132zM46.047062 404.876812a31.841356 31.841356 0 0 1-31.841356-31.809225 31.873486 31.873486 0 0 1 31.841356-31.841355H168.432251a32.13053 32.13053 0 0 1 31.873486 31.841355 31.873486 31.873486 0 0 1-31.873486 31.809225zM46.047062 554.219517a31.841356 31.841356 0 0 1-31.841356-31.809225 31.873486 31.873486 0 0 1 31.841356-31.841356H168.432251a31.873486 31.873486 0 0 1 31.873486 31.841356 31.873486 31.873486 0 0 1-31.841355 31.809225zM46.047062 702.373392a31.841356 31.841356 0 0 1-31.841356-31.809225 31.841356 31.841356 0 0 1 31.841356-31.777095H168.432251a31.873486 31.873486 0 0 1 31.873486 31.777095 31.873486 31.873486 0 0 1-31.873486 31.809225z" fill="#4C4848" p-id="2248"></path><path d="M155.130212 1023.775086c-49.223972 0-89.258613-44.629307-89.258613-99.604644v-107.155318a31.391528 31.391528 0 0 1 9.12507-22.298588 30.87744 30.87744 0 0 1 22.073675-9.157201 31.230875 31.230875 0 0 1 31.198745 31.198745v3.952055l0.257044 1.702918v101.918042c0 22.748415 13.816128 38.010417 26.732601 38.010417h764.995795c12.852212 0 26.732601-15.262002 26.732602-38.010417V99.540383c0-22.748415-13.816128-38.010417-26.732602-38.010418H155.130212c-12.852212 0-26.732601 15.262002-26.732601 38.010418V212.254283a31.198745 31.198745 0 0 1-9.125071 22.491371 31.038092 31.038092 0 0 1-22.041544 9.125071 31.230875 31.230875 0 0 1-31.198745-31.198745V99.604644c0-54.846815 40.034641-99.604644 89.258613-99.604644h764.963665c49.223972 0 89.258613 44.629307 89.258613 99.604644v824.790712c0 54.846815-40.034641 99.604644-89.258613 99.604644z" fill="#4C4848" p-id="2249"></path></svg>