<?xml version="1.0" standalone="no"?><!DOCTYPE svg PUBLIC "-//W3C//DTD SVG 1.1//EN" "http://www.w3.org/Graphics/SVG/1.1/DTD/svg11.dtd"><svg t="1555909619061" class="icon" style="" viewBox="0 0 1024 1024" version="1.1" xmlns="http://www.w3.org/2000/svg" p-id="2072" xmlns:xlink="http://www.w3.org/1999/xlink" width="16" height="16"><defs><style type="text/css"></style></defs><path d="M45.952 360.768h137.6c16.48 0 29.92-13.44 29.92-29.92a29.984 29.984 0 0 0-29.952-29.952H45.952A29.984 29.984 0 0 0 16 330.88c0 16.512 13.44 29.92 29.952 29.92z m0 215.04h137.6a29.984 29.984 0 0 0 21.152-51.072 29.76 29.76 0 0 0-21.184-8.768H45.952a29.984 29.984 0 0 0-29.952 29.92c0 16.512 13.44 29.952 29.952 29.952z m167.52 184.352a29.728 29.728 0 0 0-8.768-21.184 29.76 29.76 0 0 0-21.184-8.768H45.952a29.984 29.984 0 0 0-29.952 29.952c0 16.512 13.44 29.92 29.952 29.92h137.6c16.48 0 29.92-13.44 29.92-29.92z m96 30.4L305.44 800h66.752l2.016-3.648c31.296-56.832 104.832-98.4 178.816-101.12h15.328c74.016 2.72 147.584 44.288 178.88 101.12l1.984 3.648H816l-4.032-9.472c-12.16-28.416-33.376-56.224-61.376-80.416a327.04 327.04 0 0 0-75.52-48.448 210.304 210.304 0 0 0 66.496-66.08 195.552 195.552 0 0 0 29.984-103.968C771.552 379.328 676.8 288 560.256 288c-116.512 0-211.296 91.328-211.296 203.616 0 36.8 10.4 72.832 30.112 104.16a210.368 210.368 0 0 0 66.784 66.112 327.36 327.36 0 0 0-75.232 48.416c-27.872 24.128-49.024 51.872-61.152 80.224z m250.784-443.36c82.624 0 149.856 64.8 149.856 144.416s-67.2 144.384-149.856 144.384c-82.624 0-149.856-64.768-149.856-144.384 0-79.616 67.232-144.416 149.856-144.416z" fill="#999999" p-id="2073"></path><path d="M896.416 0H191.584C130.048 0 80 49.376 80 110.08v82.368h59.84v-70.08c0-41.696 22.4-63.744 64.64-63.744h680.128c42.24 0 64.64 22.048 64.64 63.744v780.48c0 41.696-22.368 63.744-64.64 63.744H204.48c-42.304 0-64.64-22.048-64.64-63.776v-70.08H80v81.184C80 974.624 130.048 1024 191.584 1024h704.832C957.952 1024 1008 974.624 1008 913.92V110.08C1008 49.376 957.952 0 896.416 0z" fill="#999999" p-id="2074"></path></svg>