<?xml version="1.0" standalone="no"?><!DOCTYPE svg PUBLIC "-//W3C//DTD SVG 1.1//EN" "http://www.w3.org/Graphics/SVG/1.1/DTD/svg11.dtd"><svg t="1555568822964" class="icon" style="" viewBox="0 0 1024 1024" version="1.1" xmlns="http://www.w3.org/2000/svg" p-id="1694" xmlns:xlink="http://www.w3.org/1999/xlink" width="200" height="200"><defs><style type="text/css"></style></defs><path d="M223.8 15.642h576.422v96.06H223.8z" fill="#36C9A3" p-id="1695"></path><path d="M223.8 111.702h576.422v768.564H223.8z" fill="#FAEDD6" p-id="1696"></path><path d="M223.8 880.264h576.422v128.094H223.8z" fill="#36C9A3" p-id="1697"></path><path d="M664.11 800.21h-304.22c-22.106 0-40.03-17.922-40.03-40.03 0-22.106 17.922-40.03 40.03-40.03h304.22c22.106 0 40.03 17.922 40.03 40.03 0 22.106-17.922 40.03-40.03 40.03z" fill="#FFFFFF" p-id="1698"></path><path d="M494.65 96.978h35.454v31.284h-35.454zM544.702 96.978h33.368v31.284h-33.368zM446.682 96.978h33.368v31.284h-33.368z" fill="#FA004B" p-id="1699"></path><path d="M208.15 0v1024h607.7V0h-607.7z m31.284 96.978V31.284h545.132v65.694h-191.91V128.26h191.91v736.196H239.434V128.26h192.64V96.978h-192.64z m0 895.738V895.74h545.132v96.978H239.434z" fill="#232323" p-id="1700"></path><path d="M407.926 800.21h-48.034c-22.106 0-40.03-17.922-40.03-40.03 0-22.106 17.922-40.03 40.03-40.03h48.034c22.106 0 40.03 17.922 40.03 40.03-0.002 22.106-17.922 40.03-40.03 40.03z" fill="#FA004B" p-id="1701"></path><path d="M271.496 929.108h98.02v31.284h-98.02zM655.236 929.108h98.02v31.284h-98.02z" fill="#232323" p-id="1702"></path><path d="M494.65 929.108h35.454v31.284h-35.454zM637.804 253.528c-27.792-27.792-72.852-27.792-100.644 0L512 278.688l-25.162-25.162c-27.792-27.792-72.852-27.792-100.644 0s-27.792 72.852 0 100.644l25.16 25.16 100.644 100.644 100.644-100.644 25.162-25.16c27.794-27.792 27.794-72.85 0-100.642z" fill="#FA004B" p-id="1703"></path><path d="M512.002 502.096l-136.866-136.864c-33.846-33.846-33.846-88.92 0-122.766 33.848-33.846 88.922-33.846 122.766 0l14.102 14.1 14.1-14.1c33.848-33.846 88.918-33.846 122.766 0 33.846 33.846 33.846 88.916 0 122.766l-136.868 136.864z m-75.484-253.744c-14.222 0-28.436 5.41-39.262 16.236-21.648 21.65-21.648 56.874 0 78.524l114.746 114.744 114.744-114.744c21.65-21.65 21.65-56.874 0-78.524-21.646-21.648-56.874-21.648-78.52 0l-36.224 36.22-36.222-36.222c-10.822-10.822-25.046-16.234-39.262-16.234z" fill="#232323" p-id="1704"></path><path d="M369.516 545.368h29.198v31.284h-29.198zM417.484 545.368h29.198v31.284h-29.198zM461.28 545.368h33.368v31.284H461.28zM511.334 545.368h33.368v31.284h-33.368zM561.386 545.368h31.284v31.284h-31.284zM607.268 545.368h33.368v31.284h-33.368z" fill="#FFFFFF" p-id="1705"></path><path d="M369.516 607.934h77.164v31.284h-77.164z" fill="#FAEDD6" p-id="1706"></path><path d="M480.05 607.934h160.586v31.284h-160.586zM664.112 704.51H359.89c-30.698 0-55.67 24.974-55.67 55.67s24.974 55.67 55.67 55.67h304.222c30.698 0 55.67-24.974 55.67-55.67s-24.972-55.67-55.67-55.67z m-304.222 80.056c-13.448 0-24.386-10.94-24.386-24.386s10.94-24.386 24.386-24.386h48.034c13.448 0 24.388 10.94 24.388 24.386s-10.94 24.386-24.388 24.386h-48.034z m304.222 0H457.958c3.606-7.37 5.638-15.644 5.638-24.386s-2.032-17.018-5.638-24.386h206.154c13.446 0 24.386 10.94 24.386 24.386s-10.94 24.386-24.386 24.386z" fill="#232323" p-id="1707"></path></svg>