<?xml version="1.0" standalone="no"?><!DOCTYPE svg PUBLIC "-//W3C//DTD SVG 1.1//EN" "http://www.w3.org/Graphics/SVG/1.1/DTD/svg11.dtd"><svg t="1554018470157" class="icon" style="" viewBox="0 0 1024 1024" version="1.1" xmlns="http://www.w3.org/2000/svg" p-id="3245" xmlns:xlink="http://www.w3.org/1999/xlink" width="16" height="16"><defs><style type="text/css"></style></defs><path d="M835.347692 876.307692a512.866462 512.866462 0 0 1-0.708923 0.708923l-42.929231-45.607384-8.822153-9.058462 0.157538-0.157538-1.654154-1.732923A440.713846 440.713846 0 0 0 905.294769 512c0-238.985846-185.659077-432.758154-414.641231-432.758154C261.513846 79.241846 75.933538 273.014154 75.933538 512s185.659077 432.758154 414.72 432.758154a398.572308 398.572308 0 0 0 176.049231-40.881231l32.295385 71.758769A471.827692 471.827692 0 0 1 490.653538 1024C219.687385 1024 0 794.781538 0 512S219.687385 0 490.653538 0s490.574769 229.218462 490.57477 512c0 111.537231-34.343385 217.403077-96.019693 304.285538L1024 958.857846l-53.326769 56.477539-135.325539-139.027693z" fill="#999999" p-id="3246"></path></svg>