<?xml version="1.0" standalone="no"?><!DOCTYPE svg PUBLIC "-//W3C//DTD SVG 1.1//EN" "http://www.w3.org/Graphics/SVG/1.1/DTD/svg11.dtd"><svg t="1555569422531" class="icon" style="" viewBox="0 0 1024 1024" version="1.1" xmlns="http://www.w3.org/2000/svg" p-id="17148" xmlns:xlink="http://www.w3.org/1999/xlink" width="200" height="200"><defs><style type="text/css"></style></defs><path d="M70.892308 571.076923c-7.876923 0-31.507692 11.815385-27.569231 7.876923-3.938462-7.876923 7.876923-35.446154 15.753846-43.323077L712.861538 74.830769s114.215385 3.938462 149.661539 55.138462c11.815385 15.753846 19.692308 43.323077 3.938461 82.707692-35.446154 86.646154-11.815385 118.153846 27.569231 161.476923 3.938462 3.938462 7.876923 11.815385 15.753846 19.692308 7.876923 11.815385 15.753846 19.692308 23.63077 27.569231 31.507692 35.446154 51.2 86.646154 27.56923 157.538461-3.938462 7.876923 7.876923-7.876923 0-7.876923H70.892308z m11.815384 208.738462c-23.630769 0-39.384615-19.692308-39.384615-39.384616v-169.353846l925.538461-3.938461v173.292307c0 23.630769-15.753846 39.384615-39.384615 39.384616H82.707692z" fill="#FFF3F2" p-id="17149"></path><path d="M957.046154 401.723077c-7.876923-11.815385-15.753846-19.692308-23.630769-27.569231-7.876923-7.876923-11.815385-11.815385-15.753847-19.692308-43.323077-55.138462-47.261538-70.892308-23.630769-133.907692 19.692308-43.323077 11.815385-82.707692-7.876923-110.276923-19.692308-27.569231-47.261538-43.323077-86.646154-55.138461-19.692308-3.938462-39.384615-7.876923-63.015384-11.815385-11.815385 0-23.630769 0-27.569231-3.938462-7.876923 0-11.815385 0-15.753846 3.938462L43.323077 512c-11.815385 7.876923-23.630769 35.446154-27.569231 55.138462v177.230769c0 39.384615 31.507692 66.953846 70.892308 66.953846h82.707692V945.230769h59.076923v-133.907692h216.615385V945.230769h59.076923v-133.907692h334.769231V945.230769h59.076923v-133.907692h31.507692c39.384615 0 70.892308-31.507692 70.892308-70.892308v-173.292307-3.938462c11.815385-63.015385-3.938462-118.153846-43.323077-161.476923z m-19.692308 338.707692c0 3.938462-3.938462 11.815385-11.815384 11.815385H82.707692c-3.938462 0-11.815385-3.938462-11.815384-7.876923v-141.784616l496.246154-3.938461h366.276923v141.784615z m3.938462-200.861538H708.923077v-126.030769h-59.076923v126.030769H102.4l618.338462-433.230769h11.815384c15.753846 0 35.446154 3.938462 51.2 7.876923 27.569231 7.876923 43.323077 19.692308 55.138462 31.507692 7.876923 11.815385 11.815385 31.507692 0 55.138461-35.446154 86.646154-23.630769 126.030769 31.507692 192.984616l15.753846 15.753846c7.876923 7.876923 15.753846 19.692308 23.630769 27.569231 27.569231 31.507692 39.384615 63.015385 31.507693 102.4z" fill="#FF477C" p-id="17150"></path></svg>