<?xml version="1.0" standalone="no"?><!DOCTYPE svg PUBLIC "-//W3C//DTD SVG 1.1//EN" "http://www.w3.org/Graphics/SVG/1.1/DTD/svg11.dtd"><svg t="1555569523181" class="icon" style="" viewBox="0 0 1024 1024" version="1.1" xmlns="http://www.w3.org/2000/svg" p-id="18499" xmlns:xlink="http://www.w3.org/1999/xlink" width="200" height="200"><defs><style type="text/css"></style></defs><path d="M1016.339152 140.448878C995.910224 71.501247 952.498753 28.089776 883.551122 7.660848c-2.553616 0-7.660848 0-10.214464-5.107232H143.002494c0 5.107232-5.107232 5.107232-10.214464 5.107232-66.394015 20.428928-109.805486 61.286783-127.680798 127.680798 0 2.553616 0 7.660848-5.107232 10.214464v735.441396c5.107232 2.553616 5.107232 7.660848 5.107232 12.76808 20.428928 63.840399 61.286783 107.25187 125.127182 125.127182 5.107232 0 10.214464 0 12.76808 5.107232h730.334164c2.553616-5.107232 7.660848-5.107232 12.76808-5.107232 63.840399-17.875312 107.25187-61.286783 127.680798-125.127182 2.553616-5.107232 0-10.214464 7.660848-12.76808V617.975062 150.663342c-5.107232-2.553616-2.553616-7.660848-5.107232-10.214464zM214.503741 385.59601c7.660848-10.214464 15.321696-17.875312 25.536159-25.53616 61.286783-40.857855 127.680798-63.840399 201.735661-63.840399 17.875312 0 33.197007 2.553616 48.518703 7.660848 25.53616 10.214464 30.643392 30.643392 15.321696 53.625935-7.660848 10.214464-15.321696 17.875312-25.53616 22.982544-61.286783 40.857855-130.234414 58.733167-201.73566 66.394015-17.875312 0-35.750623-2.553616-53.625936-10.214464-20.428928-12.76808-25.53616-33.197007-10.214463-51.072319z m-22.982544 33.197007c22.982544 43.411471 63.840399 45.965087 107.25187 40.857856 61.286783-7.660848 120.01995-28.089776 176.199502-56.179551 15.321696-10.214464 30.643392-20.428928 43.411471-35.750624 22.982544-30.643392 17.875312-61.286783-17.875312-76.608479-2.553616-2.553616-7.660848-2.553616-15.321696-7.660847 45.965087-5.107232 84.269327-5.107232 120.019951 15.321695 112.359102 58.733167 222.164589 117.466334 329.416458 186.413965 7.660848 5.107232 15.321696 12.76808 22.982544 17.875312 5.107232 5.107232 7.660848 12.76808 2.553616 17.875312-5.107232 5.107232-10.214464 0-15.321696-2.553616-20.428928-7.660848-38.304239-15.321696-58.733167-22.982544-7.660848 30.643392-7.660848 33.197007 20.428928 38.30424 12.76808 2.553616 28.089776 5.107232 40.857855 7.660848 12.76808 2.553616 15.321696 10.214464 12.76808 20.428927-2.553616 12.76808-10.214464 5.107232-17.875312 5.107232-135.341646-12.76808-270.683292-20.428928-406.024937-12.76808-17.875312 0-35.750623 5.107232-53.625936 12.76808h-2.553616c-25.53616 7.660848-48.518703 15.321696-74.054862 22.982544-7.660848 0-12.76808 2.553616-20.428928 5.107232-81.715711 17.875312-165.985037 20.428928-247.700748 10.214464-5.107232 0-10.214464 0-15.321696-2.553616-2.553616 0-5.107232-2.553616-5.107232-7.660848 0-68.947631 28.089776-132.78803 74.054863-176.199502z m273.236908 293.665836c-76.608479 20.428928-155.770574 25.53616-232.379053 12.76808-20.428928-2.553616-40.857855-10.214464-61.286783-17.875312-38.304239-15.321696-45.965087-45.965087-51.072319-79.162095-2.553616-15.321696 10.214464-7.660848 15.321696-7.660848 63.840399 10.214464 127.680798 10.214464 194.074813 2.553616 56.179551-7.660848 112.359102-22.982544 165.985037-38.304239 5.107232-2.553616 7.660848-2.553616 12.76808-5.107232 51.072319-10.214464 102.144638-7.660848 155.770574-10.214464 89.376559-2.553616 181.306733-2.553616 270.683291 5.107232h10.214464c5.107232 2.553616 15.321696-2.553616 15.321696 7.660848 2.553616 10.214464-10.214464 7.660848-12.76808 12.76808-5.107232 0-10.214464 2.553616-17.875312 2.553616-155.770574 30.643392-308.987531 74.054863-464.758104 114.912718z" fill="#00A6FE" p-id="18500"></path><path d="M638.40399 482.633416c20.428928 0 45.965087 15.321696 56.179551 2.553616 10.214464-12.76808 2.553616-38.304239 2.553616-61.286783 0-10.214464-2.553616-15.321696-12.76808-17.875311-109.805486-35.750623-219.610973 12.76808-268.129676 122.573566l20.428928-10.214464c63.840399-28.089776 132.78803-38.304239 201.735661-35.750624zM260.468828 564.349127c10.214464 0 20.428928 2.553616 30.643391 2.553616 33.197007 5.107232 68.947631-25.53616 71.501247-58.733167 0-15.321696-7.660848-22.982544-20.428927-22.982544-30.643392 0-79.162095 33.197007-89.376559 61.286783-7.660848 10.214464-7.660848 17.875312 7.660848 17.875312zM758.42394 503.062344c28.089776 5.107232 58.733167 12.76808 86.822943 17.875312 2.553616 0 7.660848 2.553616 10.214464 0 7.660848-7.660848 2.553616-38.304239-7.660848-40.857856-22.982544-10.214464-45.965087-20.428928-68.947631-28.089775-33.197007-12.76808-33.197007-12.76808-33.197008 22.982544 5.107232 5.107232-10.214464 22.982544 12.76808 28.089775zM194.074813 549.027431c2.553616-20.428928 2.553616-40.857855 0-58.733167 0-5.107232-2.553616-12.76808-10.214464-12.768079-7.660848-2.553616-10.214464 5.107232-15.321696 7.660847-15.321696 17.875312-25.53616 38.304239-35.750623 61.286783 17.875312 0 33.197007 5.107232 48.518703 10.214464 7.660848 0 12.76808 0 12.76808-7.660848z" fill="#00A6FE" p-id="18501"></path></svg>