<?xml version="1.0" standalone="no"?><!DOCTYPE svg PUBLIC "-//W3C//DTD SVG 1.1//EN" "http://www.w3.org/Graphics/SVG/1.1/DTD/svg11.dtd"><svg t="1559116376021" class="icon" style="" viewBox="0 0 1024 1024" version="1.1" xmlns="http://www.w3.org/2000/svg" p-id="1118" xmlns:xlink="http://www.w3.org/1999/xlink" width="200" height="200"><defs><style type="text/css"></style></defs><path d="M512 51.2c-253.952 0-460.8 206.848-460.8 460.8s206.848 460.8 460.8 460.8S972.8 765.952 972.8 512s-206.848-460.8-460.8-460.8zM747.52 532.48h-204.8v204.8c0 12.288-8.192 20.48-20.48 20.48s-20.48-8.192-20.48-20.48v-204.8h-204.8c-12.288 0-20.48-8.192-20.48-20.48s8.192-20.48 20.48-20.48h204.8v-204.8c0-12.288 8.192-20.48 20.48-20.48s20.48 8.192 20.48 20.48v204.8h204.8c12.288 0 20.48 8.192 20.48 20.48s-8.192 20.48-20.48 20.48z" p-id="1119" fill="#3d8aea"></path></svg>