<?xml version="1.0" standalone="no"?><!DOCTYPE svg PUBLIC "-//W3C//DTD SVG 1.1//EN" "http://www.w3.org/Graphics/SVG/1.1/DTD/svg11.dtd"><svg t="1558503994620" class="icon" style="" viewBox="0 0 1027 1024" version="1.1" xmlns="http://www.w3.org/2000/svg" p-id="10336" xmlns:xlink="http://www.w3.org/1999/xlink" width="16.046875" height="16"><defs><style type="text/css"></style></defs><path d="M1026.361 666.89c0-102.4-61.738-190.638-149.941-229.487 0.298-1.584 0.46-3.216 0.46-4.886 0-89.621-34.899-173.875-98.271-237.245C715.238 131.901 630.982 97 541.362 97c-81.769 0-160.543 29.752-221.812 83.776-58.635 51.7-97.31 121.985-109.517 198.662-48.496 11.556-92.999 36.287-129.14 72.427C29.374 503.384 1 571.883 1 644.742c0 72.86 28.374 141.358 79.893 192.878 51.521 51.52 120.02 79.894 192.877 79.894 1.179 0 2.339-0.086 3.478-0.235 1.139 0.15 2.298 0.235 3.477 0.235l498.957 0c0.632 0 1.258-0.031 1.88-0.074C917.076 914.333 1026.361 803.137 1026.361 666.89zM775.735 864.71 280.725 864.71c-1.179 0-2.338 0.085-3.477 0.234-1.138-0.15-2.297-0.234-3.478-0.234-121.289 0-219.964-98.676-219.964-219.966 0-121.288 98.675-219.965 219.964-219.965 121.29 0 219.966 98.676 219.966 219.965 0 14.583 11.82 26.403 26.403 26.403s26.402-11.82 26.402-26.403c0-72.859-28.374-141.358-79.893-192.877-51.521-51.519-120.02-79.893-192.879-79.893-2.887 0-5.764 0.062-8.637 0.149 27.925-128.222 142.861-222.316 276.23-222.316 151.996 0 276.342 120.58 282.454 271.103-15.567-3.037-31.639-4.646-48.08-4.646-14.583 0-26.403 11.821-26.403 26.403 0 14.581 11.82 26.403 26.403 26.403 109.078 0 197.819 88.74 197.819 197.82C973.557 775.967 884.814 864.71 775.735 864.71z" p-id="10337" fill="#6f6f6f"></path><path d="M273.771 481.848c-89.821 0-162.896 73.073-162.896 162.896 0 4.862 3.941 8.801 8.801 8.801s8.801-3.938 8.801-8.801c0-80.115 65.18-145.293 145.294-145.293 4.861 0 8.801-3.941 8.801-8.801C282.572 485.787 278.632 481.848 273.771 481.848z" p-id="10338" fill="#6f6f6f"></path><path d="M132.834 680.204c-1.183-4.717-5.963-7.583-10.678-6.396-4.715 1.182-7.578 5.963-6.396 10.677 2.255 8.997 5.313 17.863 9.083 26.349 1.458 3.28 4.675 5.229 8.047 5.229 1.194 0 2.407-0.244 3.569-0.761 4.443-1.973 6.441-7.174 4.47-11.615C137.567 696.123 134.844 688.223 132.834 680.204z" p-id="10339" fill="#6f6f6f"></path></svg>