<?xml version="1.0" standalone="no"?><!DOCTYPE svg PUBLIC "-//W3C//DTD SVG 1.1//EN" "http://www.w3.org/Graphics/SVG/1.1/DTD/svg11.dtd"><svg t="1558422209011" class="icon" style="" viewBox="0 0 1103 1024" version="1.1" xmlns="http://www.w3.org/2000/svg" p-id="9435" xmlns:xlink="http://www.w3.org/1999/xlink" width="17.234375" height="16"><defs><style type="text/css"></style></defs><path d="M692.0901 783.820723q-13.662008-14.608294-25.254014-26.850872L245.502137 335.517616l-3.844288-3.489431q-38.561164-34.953448-62.632321-59.14289-40.92688-40.690308-73.573755-21.409726t-39.625736 89.128335q-7.215433 65.057179-15.672866 141.942937t-18.038582 155.368372q-9.462862 78.423472-18.097724 153.002657T0.768858 925.941088q-4.849717 57.782604 19.280582 80.670902t86.703477 15.672866q65.057179-7.215433 143.303223-16.855724t160.158946-18.038581q81.912903-8.457433 158.976089-18.038581t139.518078-16.914867q60.207462-4.790574 70.971468-36.136306t-29.571445-72.154326q-24.307728-24.189442-58.019176-60.325748zM861.889338 691.616957q-14.549151-13.662008-26.732586-25.372299l-419.91452-422.575951-3.489431-3.844287q-34.835162-38.620307-58.847175-62.80975-40.808594-41.045166-21.46887-73.514612t89.246622-39.448308l141.942936-15.258866q76.885757-8.220862 155.427515-17.742867t153.002657-17.742867Q945.753956 5.086289 1006.020561 0.473143q57.841747-4.672288 80.61176 19.517154t15.377151 86.76262q-7.392861 65.057179-17.269724 143.303223t-18.570867 160.099803q-8.694005 81.85376-18.511725 158.916946t-17.269724 139.636364q-4.968003 60.207462-36.372877 70.971468t-72.390898-30.162874q-23.657156-24.071156-59.734319-57.90089z" p-id="9436" fill="#cdcdcd"></path></svg>