<?xml version="1.0" standalone="no"?><!DOCTYPE svg PUBLIC "-//W3C//DTD SVG 1.1//EN" "http://www.w3.org/Graphics/SVG/1.1/DTD/svg11.dtd"><svg t="1558683335203" class="icon" style="" viewBox="0 0 1024 1024" version="1.1" xmlns="http://www.w3.org/2000/svg" p-id="7898" xmlns:xlink="http://www.w3.org/1999/xlink" width="16" height="16"><defs><style type="text/css"></style></defs><path d="M903.1 79.3c15.1 0 29.3 6 40.1 16.8s16.8 25.1 16.8 40.1v175.4c0 15.1-6 29.3-16.8 40.1s-25.1 16.8-40.1 16.8H635.9c-15.1 0-29.3-6-40.1-16.8-10.8-10.7-16.8-24.9-16.8-40V136.2c0-15.1 6-29.3 16.8-40.1s25.1-16.8 40.1-16.8h267.2m0-64H635.9C569.4 15.3 515 69.7 515 136.2v175.4c0 66.5 54.4 120.9 120.9 120.9H903c66.5 0 120.9-54.4 120.9-120.9V136.2c0.1-66.5-54.3-120.9-120.8-120.9zM102.9 397.3c-2.5-36.4-2.9-130.3 46.3-217.5 24.1-42.8 56.7-77.4 97-102.9 46.2-29.3 102.6-46.5 167.4-51.1l4.5 63.8C160.6 107.8 163.6 345.5 166.8 393l-63.9 4.3z" p-id="7899" fill="#ababab"></path><path d="M149.8 467.4L1.8 323.6h294.6zM389.8 628.5c15.1 0 29.3 6 40.1 16.8s16.8 25.1 16.8 40.1v175.4c0 15.1-6 29.3-16.8 40.1s-25.1 16.8-40.1 16.8H122.7c-15.1 0-29.3-6-40.1-16.8s-16.8-25.1-16.8-40.1V685.5c0-15.1 6-29.3 16.8-40.1s25.1-16.8 40.1-16.8h267.1m0-64.1H122.7c-66.5 0-120.9 54.5-120.9 121v175.4c0 66.5 54.4 120.9 120.9 120.9h267.1c66.5 0 120.9-54.4 120.9-120.9V685.5c0-66.5-54.4-121-120.9-121zM922.9 599.9c2.5 36.4 2.9 130.3-46.3 217.5-24.1 42.8-56.7 77.4-97 102.9-46.2 29.3-102.6 46.5-167.4 51.1l-4.5-63.8C865.2 889.5 862.2 651.7 859 604.2l63.9-4.3z" p-id="7900" fill="#ababab"></path><path d="M876 529.7l148 143.8H729.4z" p-id="7901" fill="#ababab"></path></svg>