<?xml version="1.0" standalone="no"?><!DOCTYPE svg PUBLIC "-//W3C//DTD SVG 1.1//EN" "http://www.w3.org/Graphics/SVG/1.1/DTD/svg11.dtd"><svg t="1558422279667" class="icon" style="" viewBox="0 0 1024 1024" version="1.1" xmlns="http://www.w3.org/2000/svg" p-id="10937" xmlns:xlink="http://www.w3.org/1999/xlink" width="16" height="16"><defs><style type="text/css"></style></defs><path d="M777 804H247c-19.3 0-35-15.8-35-35 0-19.3 15.8-35 35-35h530c19.3 0 35 15.8 35 35 0 19.3-15.7 35-35 35z" p-id="10938" fill="#cdcdcd"></path><path d="M777 804.5H247c-19.6 0-35.5-15.9-35.5-35.5s15.9-35.5 35.5-35.5h530c19.6 0 35.5 15.9 35.5 35.5s-15.9 35.5-35.5 35.5z m-530-70c-19 0-34.5 15.5-34.5 34.5s15.5 34.5 34.5 34.5h530c19 0 34.5-15.5 34.5-34.5S796 734.5 777 734.5H247z" p-id="10939" fill="#cdcdcd"></path></svg>