<?xml version="1.0" standalone="no"?><!DOCTYPE svg PUBLIC "-//W3C//DTD SVG 1.1//EN" "http://www.w3.org/Graphics/SVG/1.1/DTD/svg11.dtd"><svg t="1558422451796" class="icon" style="" viewBox="0 0 1024 1024" version="1.1" xmlns="http://www.w3.org/2000/svg" p-id="22357" xmlns:xlink="http://www.w3.org/1999/xlink" width="16" height="16"><defs><style type="text/css"></style></defs><path d="M138.4 549l5.1 104.8 140.2-0.7-181.8 171.5 81.6 74.2 189.3-176.6 6.6 136.3 122.3-5.9-15.2-314.4L138.4 549zM863 371.4l-146.1 0.8 174.3-188.4-80.1-71L645.3 292l4.8-128.6-104.7 0.6-8.8 324.2 327.1-4.5-0.7-112.3zM476.2 128.9c8.7-15.2 8.7-34 0-49.2-8.8-15.2-25-24.6-42.5-24.6l-383.9 0.3c-27 0-48.9 22-48.9 49.1v378.7c0 27.2 22 49.2 49.1 49.2s49.1-22 49.1-49.2V153.6h334.5c17.6 0 33.8-9.4 42.6-24.7z m523.2 364.9c-15.1-8.8-33.9-8.8-49.1 0-15.2 8.8-24.5 25.1-24.5 42.6V866H591c-27.1 0-49.1 22-49.1 49.2 0 27.2 22 49.2 49.1 49.2l384.1-0.3c27 0 48.9-22 48.9-49.1V536.5c0-17.6-9.4-33.9-24.6-42.7z" p-id="22358" fill="#cdcdcd"></path></svg>