<?xml version="1.0" standalone="no"?><!DOCTYPE svg PUBLIC "-//W3C//DTD SVG 1.1//EN" "http://www.w3.org/Graphics/SVG/1.1/DTD/svg11.dtd"><svg t="1558421849076" class="icon" style="" viewBox="0 0 1024 1024" version="1.1" xmlns="http://www.w3.org/2000/svg" p-id="2665" xmlns:xlink="http://www.w3.org/1999/xlink" width="16" height="16"><defs><style type="text/css"></style></defs><path d="M522.796325 974.995202c21.62416 9.794472 32.43624 22.641767 118.932879 22.641767 151.369118 9.794472 345.986556-208.863943 345.986555-437.189629s-151.369118-394.322913-299.812614-418.36389c-78.610181-21.242557-130.253762 12.720094-175.9189 7.504855-64.872479-7.504855-129.744958-39.559492-225.145663-4.960837C137.63188 202.376695 36.252731 349.929785 36.252731 560.44734c0 241.681785 133.942589 394.322913 320.291966 437.189629 100.997546 12.21129 133.815388-2.035215 166.251628-22.641767z m-168.795647 44.138726C145.009535 970.543169 14.628571 801.365919 14.628571 560.44734 14.628571 348.784976 114.990113 187.621386 279.460928 124.020916c62.710063-22.768968 107.103191-21.62416 183.805357-5.46964a505.114931 505.114931 0 0 0 50.880376 9.285668c12.084089 1.39921 20.479351 0 54.442002-6.74165 49.481166-10.048874 81.535802-11.575286 123.384912 0C864.58525 149.461104 1009.339919 337.591294 1009.339919 560.44734c0 230.742504-196.398251 469.244266-368.24672 458.813789-61.056451 0-89.040658-5.46964-115.625654-18.825739-43.884324 23.02337-86.242237 29.001814-171.466867 18.698538z" fill="#3F3D36" p-id="2666"></path><path d="M522.796325 974.995202c21.62416 9.794472 32.43624 22.641767 118.932879 22.641767 151.369118 9.794472 345.986556-208.863943 345.986555-437.189629s-151.369118-394.322913-299.812614-418.36389c-78.610181-21.242557-130.253762 12.720094-175.9189 7.504855-64.872479-7.504855-129.744958-39.559492-225.145663-4.960837C137.63188 202.376695 36.252731 349.929785 36.252731 560.44734c0 241.681785 133.942589 394.322913 320.291966 437.189629 100.997546 12.21129 133.815388-2.035215 166.251628-22.641767z" fill="#FFF3C3" p-id="2667"></path><path d="M506.641806 141.193043a10.81208 10.81208 0 1 0 21.115356-4.452033C508.931423 46.809946 467.463916 0 403.863447 0a10.81208 10.81208 0 0 0 0 21.62416c51.643581 0.636005 85.733433 38.796287 102.778359 119.568883z" fill="#443939" p-id="2668"></path><path d="M292.944227 581.944299a106.085584 106.085584 0 1 1 105.195177-105.958383 105.703981 105.703981 0 0 1-105.195177 105.958383z m421.03511 0a106.085584 106.085584 0 1 1 105.322378-105.958383 105.57678 105.57678 0 0 1-105.322378 105.958383z" fill="#FFCCC5" p-id="2669"></path><path d="M438.2077 347.89457h16.663323a12.720094 12.720094 0 0 1 12.720094 12.720094v38.160282a12.720094 12.720094 0 0 1-12.720094 12.720094H438.2077a12.720094 12.720094 0 0 1-12.720094-12.720094v-38.160282a12.720094 12.720094 0 0 1 12.720094-12.720094z m126.310533 0h16.663323a12.720094 12.720094 0 0 1 12.720094 12.720094v38.160282a12.720094 12.720094 0 0 1-12.720094 12.720094h-16.663323a12.720094 12.720094 0 0 1-12.720094-12.720094v-38.160282a12.720094 12.720094 0 0 1 12.720094-12.720094z" fill="#534A41" p-id="2670"></path><path d="M481.45602 477.639528h58.766834a12.720094 12.720094 0 0 1 12.720094 12.720094 12.720094 12.720094 0 0 1-12.720094 12.720094H481.45602a12.720094 12.720094 0 0 1-12.720094-12.720094 12.720094 12.720094 0 0 1 12.720094-12.720094z" fill="#534A41" p-id="2671"></path><path d="M939.633804 176.173301a357.816243 357.816243 0 0 0-409.332623-35.870665 348.276173 348.276173 0 0 0 199.06947 82.55341 348.530574 348.530574 0 0 0 210.263153-46.682745z m13.992104-16.536122l23.404972 19.716146-26.457795 15.518514a370.281935 370.281935 0 0 1-223.110448 49.481166 370.027533 370.027533 0 0 1-211.026359-87.514246l-23.404973-20.097749 26.457796-15.391314a379.0588 379.0588 0 0 1 434.136807 38.160282z" fill="#3F473A" p-id="2672"></path><path d="M939.633804 176.173301a357.816243 357.816243 0 0 0-409.332623-35.870665 348.276173 348.276173 0 0 0 199.06947 82.55341 348.530574 348.530574 0 0 0 210.263153-46.682745z" fill="#B0CB64" p-id="2673"></path></svg>