<?xml version="1.0" standalone="no"?><!DOCTYPE svg PUBLIC "-//W3C//DTD SVG 1.1//EN" "http://www.w3.org/Graphics/SVG/1.1/DTD/svg11.dtd"><svg t="1558422113224" class="icon" style="" viewBox="0 0 1024 1024" version="1.1" xmlns="http://www.w3.org/2000/svg" p-id="6849" xmlns:xlink="http://www.w3.org/1999/xlink" width="16" height="16"><defs><style type="text/css"></style></defs><path d="M907.5 512c0-55.8-45.3-101.5-100.9-102.2-4.4-12.8-9.7-25.2-15.7-37.1 35.8-40 34.5-102-3.9-140.4-38.9-38.9-102.1-39.7-142-2.4-10-4.7-20.3-8.9-30.8-12.6-0.7-55.6-46.4-100.9-102.2-100.9-55.8 0-101.5 45.3-102.2 100.9-12.7 4.4-25.1 9.6-37 15.6l-0.6-0.6c-39.7-39.7-104.8-39.7-144.5 0s-39.7 104.8 0 144.5l2.2 2.2c-4.7 10-8.9 20.2-12.6 30.8-55.6 0.7-100.9 46.4-100.9 102.2s45.3 101.5 100.9 102.2c3.6 10.5 7.8 20.8 12.6 30.8l-2.2 2.2c-39.7 39.7-39.7 104.8 0 144.5s104.8 39.7 144.5 0l0.6-0.6c11.9 6 24.3 11.2 37 15.6 0.7 55.6 46.4 100.9 102.2 100.9 55.8 0 101.5-45.3 102.2-100.9 10.5-3.7 20.8-7.9 30.8-12.6 39.9 37.3 103.1 36.6 142-2.4 38.4-38.4 39.7-100.4 3.9-140.4 6-12 11.2-24.4 15.7-37.1 55.6-0.7 100.9-46.4 100.9-102.2z m-135.7 74.7c-6 21.3-14.4 41.5-25.1 60.4l17.6 17.6c28.5 28.5 28.5 74.9 0 103.4-14.3 14.3-33 21.4-51.7 21.4-18.7 0-37.4-7.1-51.7-21.4l-17.6-17.6c-18.9 10.7-39.1 19.2-60.4 25.1v24.9c0 40.3-32.8 73.1-73.1 73.1s-73.1-32.8-73.1-73.1v-24.9c-21.3-6-41.5-14.4-60.4-25.1l-17.6 17.6c-14.3 14.3-33 21.4-51.7 21.4-18.7 0-37.4-7.1-51.7-21.4-28.5-28.5-28.5-74.9 0-103.4l17.6-17.6c-10.7-18.9-19.2-39.1-25.1-60.4h-24.9c-40.3 0-73.1-32.8-73.1-73.1s32.8-73.1 73.1-73.1h24.9c6-21.3 14.4-41.5 25.1-60.4l-17.6-17.6c-28.5-28.5-28.5-74.9 0-103.4s74.9-28.5 103.4 0l17.6 17.6c18.9-10.7 39.1-19.2 60.4-25.1v-24.9c0-40.3 32.8-73.1 73.1-73.1s73.1 32.8 73.1 73.1v24.9c21.3 6 41.5 14.4 60.4 25.1l17.6-17.6c28.5-28.5 74.9-28.5 103.4 0s28.5 74.9 0 103.4l-17.6 17.6c10.7 18.9 19.2 39.1 25.1 60.4h24.9c40.3 0 73.1 32.8 73.1 73.1s-32.8 73.1-73.1 73.1h-24.9z" fill="#FFB600" p-id="6850"></path><path d="M512 435.3c-43.2 0-78.3 35.1-78.3 78.3 0 43.2 35.1 78.3 78.3 78.3s78.3-35.1 78.3-78.3c0-43.2-35.1-78.3-78.3-78.3z" fill="#FFB600" p-id="6851"></path><path d="M798.9 489h-64.8c-1.8-16.8-5.6-33.1-10.9-48.6-2.9-8.4-6.3-16.6-10.2-24.5-7.3-15-16.3-29.1-26.7-42l34.5-34.5 11.4-11.4c9.6-9.6 9.6-25.1 0-34.7-4.8-4.8-11.1-7.2-17.4-7.2-6.3 0-12.6 2.4-17.4 7.2L686 304.7l-34.5 34.5c-12.9-10.4-27-19.3-42-26.7-7.9-3.9-16.1-7.2-24.5-10.2-15.5-5.4-31.8-9.1-48.6-10.9v-64.8c0-13.5-11-24.5-24.5-24.5s-24.5 11-24.5 24.5v64.8c-16.8 1.8-33.1 5.6-48.6 10.9-8.4 2.9-16.6 6.3-24.5 10.2-15 7.3-29.1 16.3-42 26.7l-34.5-34.5-11.4-11.4c-4.8-4.8-11.1-7.2-17.4-7.2-6.3 0-12.6 2.4-17.4 7.2-9.6 9.6-9.6 25.1 0 34.7l11.4 11.4 34.5 34.5c-10.4 12.9-19.3 27-26.7 42-3.9 7.9-7.2 16.1-10.2 24.5-5.4 15.5-9.1 31.8-10.9 48.6h-64.8c-13.5 0-24.5 11-24.5 24.5s11 24.5 24.5 24.5h64.8c1.8 16.8 5.6 33.1 10.9 48.6 2.9 8.4 6.3 16.6 10.2 24.5 7.3 15 16.3 29.1 26.7 42L303 687.6 291.6 699c-9.6 9.6-9.6 25.1 0 34.7 9.6 9.6 25.1 9.6 34.7 0l11.4-11.4 34.5-34.5c12.9 10.4 27 19.3 42 26.7 7.9 3.9 16.1 7.2 24.5 10.2 15.5 5.4 31.8 9.1 48.6 10.9v64.8c0 13.5 11 24.5 24.5 24.5s24.5-11 24.5-24.5v-64.8c16.8-1.8 33.1-5.6 48.6-10.9 8.4-2.9 16.6-6.3 24.5-10.2 15-7.3 29.1-16.3 42-26.7l34.5 34.5 11.4 11.4c9.6 9.6 25.1 9.6 34.7 0 9.6-9.6 9.6-25.1 0-34.7l-11.4-11.4-34.5-34.5c10.4-12.9 19.3-27 26.7-42 3.9-7.9 7.2-16.1 10.2-24.5 5.4-15.5 9.1-31.8 10.9-48.6h64.8c13.5 0 24.5-11 24.5-24.5 0.2-13.5-10.8-24.5-24.3-24.5zM512 640.4c-69.9 0-126.8-56.9-126.8-126.8S442.1 386.8 512 386.8s126.8 56.9 126.8 126.8S581.9 640.4 512 640.4z" fill="#FFB600" p-id="6852"></path></svg>