<?xml version="1.0" standalone="no"?><!DOCTYPE svg PUBLIC "-//W3C//DTD SVG 1.1//EN" "http://www.w3.org/Graphics/SVG/1.1/DTD/svg11.dtd"><svg t="1558683234200" class="icon" style="" viewBox="0 0 1024 1024" version="1.1" xmlns="http://www.w3.org/2000/svg" p-id="2957" xmlns:xlink="http://www.w3.org/1999/xlink" width="16" height="16"><defs><style type="text/css"></style></defs><path d="M402.285714 694.857143l36.571429 0 0-109.714286 146.285714 0 0 109.714286 36.571429 0 0-109.714286 109.714286 0 0-36.571429-109.714286 0 0-146.285714 109.714286 0 0-36.571429-109.714286 0 0-109.714286-36.571429 0 0 109.714286-146.285714 0 0-109.714286-36.571429 0 0 109.714286-109.714286 0 0 36.571429 109.714286 0 0 146.285714-109.714286 0 0 36.571429 109.714286 0L402.285714 694.857143zM438.857143 402.285714l146.285714 0 0 146.285714-146.285714 0L438.857143 402.285714z" p-id="2958" fill="#ababab"></path><path d="M969.142857 109.714286 54.857143 109.714286c-20.214857 0-36.571429 16.374857-36.571429 36.571429l0 658.285714c0 20.214857 16.356571 36.571429 36.571429 36.571429l329.142857 0 128 182.857143 128-182.857143 329.142857 0c20.214857 0 36.571429-16.356571 36.571429-36.571429L1005.714286 146.285714C1005.714286 126.089143 989.357714 109.714286 969.142857 109.714286zM932.571429 768 601.929143 768 512 896.464457 422.072686 768 91.428571 768 91.428571 182.857143l841.142857 0L932.571429 768z" p-id="2959" fill="#ababab"></path></svg>